<mxfile host="65bd71144e">
    <diagram id="jyERGzDynktFHFRGN0ph" name="Page-1">
        <mxGraphModel dx="3321" dy="2867" grid="1" gridSize="10" guides="1" tooltips="1" connect="1" arrows="1" fold="1" page="1" pageScale="1" pageWidth="1920" pageHeight="1200" math="0" shadow="0">
            <root>
                <mxCell id="0"/>
                <mxCell id="1" parent="0"/>
                <mxCell id="2" value="" style="rounded=0;whiteSpace=wrap;html=1;fontStyle=1;strokeWidth=4;" vertex="1" parent="1">
                    <mxGeometry x="450" y="-50" width="820" height="970" as="geometry"/>
                </mxCell>
                <mxCell id="3" value="&lt;font face=&quot;Roboto&quot;&gt;&lt;span style=&quot;font-size: 24px&quot;&gt;Server(s)&lt;/span&gt;&lt;/font&gt;" style="text;html=1;strokeColor=none;fillColor=none;align=center;verticalAlign=middle;whiteSpace=wrap;rounded=0;strokeWidth=3;fontFamily=Roboto Mono, mono;FType=g;" vertex="1" parent="1">
                    <mxGeometry x="710" y="-50" width="300" height="80" as="geometry"/>
                </mxCell>
                <mxCell id="8" style="edgeStyle=orthogonalEdgeStyle;rounded=0;orthogonalLoop=1;jettySize=auto;html=1;strokeWidth=3;exitX=0.092;exitY=1.01;exitDx=0;exitDy=0;dashed=1;exitPerimeter=0;" edge="1" parent="1" target="14">
                    <mxGeometry relative="1" as="geometry">
                        <Array as="points">
                            <mxPoint x="800" y="521"/>
                            <mxPoint x="800" y="560"/>
                        </Array>
                        <mxPoint x="803" y="521" as="sourcePoint"/>
                    </mxGeometry>
                </mxCell>
                <mxCell id="9" style="edgeStyle=orthogonalEdgeStyle;rounded=0;orthogonalLoop=1;jettySize=auto;html=1;strokeWidth=3;dashed=1;" edge="1" parent="1" target="17">
                    <mxGeometry relative="1" as="geometry">
                        <mxPoint x="800" y="520" as="sourcePoint"/>
                        <Array as="points">
                            <mxPoint x="800" y="680"/>
                        </Array>
                    </mxGeometry>
                </mxCell>
                <mxCell id="33" value="" style="group" vertex="1" connectable="0" parent="1">
                    <mxGeometry x="-140" y="-75" width="500" height="350" as="geometry"/>
                </mxCell>
                <mxCell id="29" value="&lt;font face=&quot;Roboto&quot; data-font-src=&quot;https://fonts.googleapis.com/css?family=Roboto&quot; style=&quot;font-size: 24px&quot;&gt;https://someapp.example.com&lt;/font&gt;" style="rounded=0;whiteSpace=wrap;html=1;fontStyle=1;strokeWidth=4;" vertex="1" parent="33">
                    <mxGeometry x="60" y="27" width="380" height="250" as="geometry"/>
                </mxCell>
                <mxCell id="32" value="" style="pointerEvents=1;shadow=0;dashed=0;html=1;fillColor=#505050;labelPosition=center;verticalLabelPosition=bottom;verticalAlign=top;outlineConnect=0;align=center;shape=mxgraph.office.devices.laptop;strokeColor=none;" vertex="1" parent="33">
                    <mxGeometry width="500" height="350" as="geometry"/>
                </mxCell>
                <mxCell id="90" style="edgeStyle=orthogonalEdgeStyle;rounded=0;orthogonalLoop=1;jettySize=auto;html=1;dashed=1;startArrow=none;startFill=0;endArrow=classic;endFill=1;strokeWidth=3;" edge="1" parent="1" source="101" target="32">
                    <mxGeometry relative="1" as="geometry">
                        <mxPoint x="390" y="-190" as="sourcePoint"/>
                        <Array as="points">
                            <mxPoint x="390" y="-132"/>
                            <mxPoint x="280" y="-132"/>
                        </Array>
                    </mxGeometry>
                </mxCell>
                <mxCell id="34" value="&lt;font face=&quot;Roboto&quot; data-font-src=&quot;https://fonts.googleapis.com/css?family=Roboto&quot; style=&quot;font-size: 24px&quot;&gt;DNS Servers&lt;/font&gt;" style="ellipse;shape=cloud;whiteSpace=wrap;html=1;strokeColor=#000000;strokeWidth=3;" vertex="1" parent="1">
                    <mxGeometry x="-60" y="-540" width="330" height="260" as="geometry"/>
                </mxCell>
                <mxCell id="6" value="" style="rounded=0;whiteSpace=wrap;html=1;fontStyle=1;strokeWidth=4;fillColor=#dae8fc;strokeColor=#6c8ebf;" vertex="1" parent="1">
                    <mxGeometry x="495" y="320" width="355" height="440" as="geometry"/>
                </mxCell>
                <mxCell id="7" value="&lt;font style=&quot;font-size: 24px&quot; face=&quot;Roboto&quot;&gt;TLS Termination Proxy&lt;br&gt;&lt;/font&gt;" style="text;html=1;strokeColor=none;fillColor=none;align=center;verticalAlign=middle;whiteSpace=wrap;rounded=0;strokeWidth=3;fontFamily=Roboto Mono, mono;FType=g;" vertex="1" parent="1">
                    <mxGeometry x="525" y="330" width="280" height="40" as="geometry"/>
                </mxCell>
                <mxCell id="56" style="edgeStyle=orthogonalEdgeStyle;rounded=0;orthogonalLoop=1;jettySize=auto;html=1;strokeWidth=3;" edge="1" parent="1" source="55" target="49">
                    <mxGeometry relative="1" as="geometry"/>
                </mxCell>
                <mxCell id="58" style="edgeStyle=orthogonalEdgeStyle;rounded=0;orthogonalLoop=1;jettySize=auto;html=1;strokeWidth=3;dashed=1;startArrow=none;" edge="1" parent="1" source="102" target="57">
                    <mxGeometry relative="1" as="geometry">
                        <mxPoint x="410" y="400" as="targetPoint"/>
                        <mxPoint x="585" y="1050" as="sourcePoint"/>
                        <Array as="points"/>
                    </mxGeometry>
                </mxCell>
                <mxCell id="55" value="&lt;font face=&quot;Roboto&quot; data-font-src=&quot;https://fonts.googleapis.com/css?family=Roboto&quot; style=&quot;font-size: 24px ; font-weight: normal&quot;&gt;Cert Renovation Program&lt;/font&gt;" style="rounded=0;whiteSpace=wrap;html=1;fontStyle=1;strokeWidth=4;fillColor=#dae8fc;strokeColor=#6c8ebf;" vertex="1" parent="1">
                    <mxGeometry x="515" y="780" width="300" height="100" as="geometry"/>
                </mxCell>
                <mxCell id="59" style="edgeStyle=orthogonalEdgeStyle;rounded=0;orthogonalLoop=1;jettySize=auto;html=1;dashed=1;strokeWidth=3;startArrow=none;" edge="1" parent="1" source="103" target="55">
                    <mxGeometry relative="1" as="geometry">
                        <mxPoint x="875" y="1030" as="sourcePoint"/>
                        <Array as="points">
                            <mxPoint x="790" y="930"/>
                            <mxPoint x="790" y="930"/>
                        </Array>
                    </mxGeometry>
                </mxCell>
                <mxCell id="57" value="&lt;font face=&quot;Roboto&quot; data-font-src=&quot;https://fonts.googleapis.com/css?family=Roboto&quot; style=&quot;font-size: 24px&quot;&gt;Let's Encrypt&lt;/font&gt;" style="ellipse;shape=cloud;whiteSpace=wrap;html=1;strokeColor=#000000;strokeWidth=3;" vertex="1" parent="1">
                    <mxGeometry x="500" y="1150" width="330" height="260" as="geometry"/>
                </mxCell>
                <mxCell id="73" style="edgeStyle=orthogonalEdgeStyle;rounded=0;orthogonalLoop=1;jettySize=auto;html=1;startArrow=none;startFill=0;endArrow=classic;endFill=1;strokeWidth=3;" edge="1" parent="1" source="85" target="6">
                    <mxGeometry relative="1" as="geometry">
                        <Array as="points"/>
                    </mxGeometry>
                </mxCell>
                <mxCell id="82" style="edgeStyle=orthogonalEdgeStyle;rounded=0;orthogonalLoop=1;jettySize=auto;html=1;startArrow=none;startFill=0;endArrow=classic;endFill=1;strokeWidth=3;" edge="1" parent="1" source="62" target="78">
                    <mxGeometry relative="1" as="geometry">
                        <Array as="points">
                            <mxPoint x="920" y="770"/>
                            <mxPoint x="920" y="770"/>
                        </Array>
                    </mxGeometry>
                </mxCell>
                <mxCell id="62" value="&lt;font face=&quot;Roboto&quot; data-font-src=&quot;https://fonts.googleapis.com/css?family=Roboto&quot; style=&quot;font-size: 24px&quot;&gt;FastAPI&lt;/font&gt;&lt;font face=&quot;Roboto&quot; data-font-src=&quot;https://fonts.googleapis.com/css?family=Roboto&quot; style=&quot;font-size: 24px ; font-weight: normal&quot;&gt; app for: someapp.example.com&lt;/font&gt;" style="rounded=0;whiteSpace=wrap;html=1;fontStyle=1;strokeWidth=4;fillColor=#dae8fc;strokeColor=#6c8ebf;" vertex="1" parent="1">
                    <mxGeometry x="890" y="650" width="300" height="100" as="geometry"/>
                </mxCell>
                <mxCell id="65" value="&lt;font face=&quot;Roboto&quot; data-font-src=&quot;https://fonts.googleapis.com/css?family=Roboto&quot; style=&quot;font-size: 24px ; font-weight: normal&quot;&gt;Another app&lt;/font&gt;&lt;font face=&quot;Roboto&quot; data-font-src=&quot;https://fonts.googleapis.com/css?family=Roboto&quot; style=&quot;font-size: 24px ; font-weight: normal&quot;&gt;: another.example.com&lt;/font&gt;" style="rounded=0;whiteSpace=wrap;html=1;fontStyle=1;strokeWidth=4;fillColor=#dae8fc;strokeColor=#6c8ebf;" vertex="1" parent="1">
                    <mxGeometry x="890" y="50" width="300" height="100" as="geometry"/>
                </mxCell>
                <mxCell id="66" value="&lt;font face=&quot;Roboto&quot; data-font-src=&quot;https://fonts.googleapis.com/css?family=Roboto&quot; style=&quot;font-size: 24px ; font-weight: normal&quot;&gt;One more app&lt;/font&gt;&lt;font face=&quot;Roboto&quot; data-font-src=&quot;https://fonts.googleapis.com/css?family=Roboto&quot; style=&quot;font-size: 24px ; font-weight: normal&quot;&gt;: onemore.example.com&lt;/font&gt;" style="rounded=0;whiteSpace=wrap;html=1;fontStyle=1;strokeWidth=4;fillColor=#dae8fc;strokeColor=#6c8ebf;" vertex="1" parent="1">
                    <mxGeometry x="890" y="180" width="300" height="100" as="geometry"/>
                </mxCell>
                <mxCell id="78" value="&lt;font face=&quot;Roboto&quot;&gt;&lt;span style=&quot;font-size: 24px ; font-weight: 400&quot;&gt;A Database&lt;/span&gt;&lt;/font&gt;" style="rounded=0;whiteSpace=wrap;html=1;fontStyle=1;strokeWidth=4;fillColor=#dae8fc;strokeColor=#6c8ebf;" vertex="1" parent="1">
                    <mxGeometry x="890" y="780" width="300" height="100" as="geometry"/>
                </mxCell>
                <mxCell id="80" value="" style="edgeStyle=orthogonalEdgeStyle;rounded=0;orthogonalLoop=1;jettySize=auto;html=1;dashed=1;strokeWidth=3;endArrow=none;" edge="1" parent="1" source="57" target="103">
                    <mxGeometry relative="1" as="geometry">
                        <mxPoint x="480" y="1090" as="sourcePoint"/>
                        <mxPoint x="875" y="1110" as="targetPoint"/>
                        <Array as="points">
                            <mxPoint x="915" y="1250"/>
                        </Array>
                    </mxGeometry>
                </mxCell>
                <mxCell id="81" value="" style="edgeStyle=orthogonalEdgeStyle;rounded=0;orthogonalLoop=1;jettySize=auto;html=1;strokeWidth=3;dashed=1;endArrow=none;" edge="1" parent="1" source="55" target="102">
                    <mxGeometry relative="1" as="geometry">
                        <mxPoint x="525" y="970" as="targetPoint"/>
                        <mxPoint x="550" y="880" as="sourcePoint"/>
                        <Array as="points">
                            <mxPoint x="525" y="930"/>
                            <mxPoint x="525" y="930"/>
                        </Array>
                    </mxGeometry>
                </mxCell>
                <mxCell id="85" value="&lt;span style=&quot;font-family: &amp;#34;roboto&amp;#34; ; font-size: 24px&quot;&gt;Plain response from: someapp.example.com&lt;/span&gt;" style="shape=hexagon;perimeter=hexagonPerimeter2;whiteSpace=wrap;html=1;fixedSize=1;strokeColor=#9673a6;strokeWidth=3;fillColor=#e1d5e7;" vertex="1" parent="1">
                    <mxGeometry x="890" y="500" width="310" height="80" as="geometry"/>
                </mxCell>
                <mxCell id="86" value="" style="edgeStyle=orthogonalEdgeStyle;rounded=0;orthogonalLoop=1;jettySize=auto;html=1;startArrow=none;startFill=0;endArrow=none;endFill=1;strokeWidth=3;" edge="1" parent="1" source="62" target="85">
                    <mxGeometry relative="1" as="geometry">
                        <mxPoint x="1030.0000000000005" y="649.9999999999995" as="sourcePoint"/>
                        <mxPoint x="850" y="540.0000000000005" as="targetPoint"/>
                        <Array as="points">
                            <mxPoint x="1030" y="540"/>
                        </Array>
                    </mxGeometry>
                </mxCell>
                <mxCell id="87" style="edgeStyle=orthogonalEdgeStyle;rounded=0;orthogonalLoop=1;jettySize=auto;html=1;startArrow=none;startFill=0;endArrow=classic;endFill=1;strokeWidth=3;" edge="1" parent="1" source="84" target="62">
                    <mxGeometry relative="1" as="geometry">
                        <Array as="points">
                            <mxPoint x="1240" y="390"/>
                            <mxPoint x="1240" y="700"/>
                        </Array>
                    </mxGeometry>
                </mxCell>
                <mxCell id="88" style="edgeStyle=orthogonalEdgeStyle;rounded=0;orthogonalLoop=1;jettySize=auto;html=1;startArrow=none;startFill=0;endArrow=classic;endFill=1;strokeWidth=3;dashed=1;" edge="1" parent="1" source="100" target="34">
                    <mxGeometry relative="1" as="geometry">
                        <mxPoint x="65.05882352941171" y="-220" as="sourcePoint"/>
                    </mxGeometry>
                </mxCell>
                <mxCell id="89" value="" style="edgeStyle=orthogonalEdgeStyle;rounded=0;orthogonalLoop=1;jettySize=auto;html=1;startArrow=none;startFill=0;endArrow=none;endFill=1;strokeWidth=3;dashed=1;" edge="1" parent="1" source="32" target="100">
                    <mxGeometry relative="1" as="geometry">
                        <mxPoint x="110" y="-75" as="sourcePoint"/>
                        <mxPoint x="-4.941176470588289" y="-139.99999999999955" as="targetPoint"/>
                        <Array as="points">
                            <mxPoint x="-5" y="-80"/>
                            <mxPoint x="-5" y="-80"/>
                        </Array>
                    </mxGeometry>
                </mxCell>
                <mxCell id="91" value="" style="edgeStyle=orthogonalEdgeStyle;rounded=0;orthogonalLoop=1;jettySize=auto;html=1;dashed=1;startArrow=none;startFill=0;endArrow=none;endFill=1;strokeWidth=3;" edge="1" parent="1" source="34" target="101">
                    <mxGeometry relative="1" as="geometry">
                        <mxPoint x="105" y="-280" as="sourcePoint"/>
                        <mxPoint x="390" y="-260" as="targetPoint"/>
                        <Array as="points">
                            <mxPoint x="390" y="-430"/>
                        </Array>
                    </mxGeometry>
                </mxCell>
                <mxCell id="109" style="edgeStyle=orthogonalEdgeStyle;rounded=0;orthogonalLoop=1;jettySize=auto;html=1;dashed=1;startArrow=none;startFill=0;endArrow=classic;endFill=1;strokeWidth=3;" edge="1" parent="1" source="97" target="32">
                    <mxGeometry relative="1" as="geometry">
                        <Array as="points">
                            <mxPoint x="340" y="480"/>
                            <mxPoint x="340" y="480"/>
                        </Array>
                    </mxGeometry>
                </mxCell>
                <mxCell id="36" value="&lt;font face=&quot;Roboto&quot; data-font-src=&quot;https://fonts.googleapis.com/css?family=Roboto&quot; style=&quot;font-size: 24px&quot;&gt;Port 443 (HTTPS)&lt;/font&gt;" style="ellipse;whiteSpace=wrap;html=1;strokeColor=#000000;strokeWidth=3;" vertex="1" parent="1">
                    <mxGeometry x="330" y="680" width="170" height="120" as="geometry"/>
                </mxCell>
                <mxCell id="92" style="edgeStyle=orthogonalEdgeStyle;rounded=0;orthogonalLoop=1;jettySize=auto;html=1;dashed=1;startArrow=none;startFill=0;endArrow=classic;endFill=1;strokeWidth=3;" edge="1" parent="1" source="96" target="36">
                    <mxGeometry relative="1" as="geometry">
                        <mxPoint x="50" y="500" as="sourcePoint"/>
                        <Array as="points">
                            <mxPoint x="50" y="740"/>
                        </Array>
                    </mxGeometry>
                </mxCell>
                <mxCell id="93" value="" style="edgeStyle=orthogonalEdgeStyle;rounded=0;orthogonalLoop=1;jettySize=auto;html=1;dashed=1;startArrow=none;startFill=0;endArrow=none;endFill=1;strokeWidth=3;" edge="1" parent="1" source="32" target="96">
                    <mxGeometry relative="1" as="geometry">
                        <mxPoint x="300" y="350" as="sourcePoint"/>
                        <mxPoint x="55" y="330" as="targetPoint"/>
                        <Array as="points">
                            <mxPoint x="160" y="340"/>
                            <mxPoint x="160" y="340"/>
                        </Array>
                    </mxGeometry>
                </mxCell>
                <mxCell id="96" value="&lt;span style=&quot;font-family: &amp;#34;roboto&amp;#34; ; font-size: 24px&quot;&gt;Encrypted request for: someapp.example.com&lt;/span&gt;" style="shape=hexagon;perimeter=hexagonPerimeter2;whiteSpace=wrap;html=1;fixedSize=1;strokeColor=#82b366;strokeWidth=3;fillColor=#d5e8d4;" vertex="1" parent="1">
                    <mxGeometry x="-10" y="400" width="310" height="80" as="geometry"/>
                </mxCell>
                <mxCell id="100" value="&lt;span style=&quot;font-family: &amp;#34;roboto&amp;#34; ; font-size: 24px&quot;&gt;Who is: someapp.example.com&lt;/span&gt;" style="shape=hexagon;perimeter=hexagonPerimeter2;whiteSpace=wrap;html=1;fixedSize=1;strokeWidth=3;" vertex="1" parent="1">
                    <mxGeometry x="-110" y="-210" width="310" height="80" as="geometry"/>
                </mxCell>
                <mxCell id="101" value="&lt;span style=&quot;font-family: &amp;#34;roboto&amp;#34; ; font-size: 24px&quot;&gt;IP:&lt;/span&gt;&lt;br style=&quot;font-family: &amp;#34;roboto&amp;#34;&quot;&gt;&lt;span style=&quot;font-family: &amp;#34;roboto&amp;#34; ; font-size: 24px&quot;&gt;123.124.125.126&lt;/span&gt;" style="shape=hexagon;perimeter=hexagonPerimeter2;whiteSpace=wrap;html=1;fixedSize=1;strokeWidth=3;" vertex="1" parent="1">
                    <mxGeometry x="270" y="-290" width="240" height="80" as="geometry"/>
                </mxCell>
                <mxCell id="102" value="&lt;span style=&quot;font-family: &amp;#34;roboto&amp;#34; ; font-size: 24px&quot;&gt;Renew HTTPS cert for: someapp.example.com&lt;/span&gt;" style="shape=hexagon;perimeter=hexagonPerimeter2;whiteSpace=wrap;html=1;fixedSize=1;strokeWidth=3;" vertex="1" parent="1">
                    <mxGeometry x="430" y="960" width="310" height="80" as="geometry"/>
                </mxCell>
                <mxCell id="103" value="&lt;span style=&quot;font-family: &amp;#34;roboto&amp;#34; ; font-size: 24px&quot;&gt;New HTTPS cert for: someapp.example.com&lt;/span&gt;" style="shape=hexagon;perimeter=hexagonPerimeter2;whiteSpace=wrap;html=1;fixedSize=1;strokeWidth=3;" vertex="1" parent="1">
                    <mxGeometry x="750" y="1070" width="310" height="80" as="geometry"/>
                </mxCell>
                <mxCell id="106" style="edgeStyle=orthogonalEdgeStyle;rounded=0;orthogonalLoop=1;jettySize=auto;html=1;dashed=1;startArrow=none;startFill=0;endArrow=none;endFill=0;strokeWidth=3;" edge="1" parent="1" source="104" target="36">
                    <mxGeometry relative="1" as="geometry">
                        <Array as="points">
                            <mxPoint x="-40" y="770"/>
                        </Array>
                    </mxGeometry>
                </mxCell>
                <mxCell id="104" value="&lt;span style=&quot;font-family: &amp;#34;roboto&amp;#34; ; font-size: 24px&quot;&gt;TLS Handshake&lt;/span&gt;" style="shape=hexagon;perimeter=hexagonPerimeter2;whiteSpace=wrap;html=1;fixedSize=1;strokeWidth=3;" vertex="1" parent="1">
                    <mxGeometry x="-110" y="300" width="230" height="80" as="geometry"/>
                </mxCell>
                <mxCell id="107" value="" style="edgeStyle=orthogonalEdgeStyle;rounded=0;orthogonalLoop=1;jettySize=auto;html=1;dashed=1;startArrow=none;startFill=0;endArrow=none;endFill=1;strokeWidth=3;" edge="1" parent="1" source="32" target="104">
                    <mxGeometry relative="1" as="geometry">
                        <mxPoint x="-40" y="275" as="sourcePoint"/>
                        <mxPoint x="341.38784067832285" y="770" as="targetPoint"/>
                        <Array as="points">
                            <mxPoint x="-40" y="290"/>
                            <mxPoint x="-40" y="290"/>
                        </Array>
                    </mxGeometry>
                </mxCell>
                <mxCell id="97" value="&lt;span style=&quot;font-family: &amp;#34;roboto&amp;#34; ; font-size: 24px&quot;&gt;Encrypted response from: someapp.example.com&lt;/span&gt;" style="shape=hexagon;perimeter=hexagonPerimeter2;whiteSpace=wrap;html=1;fixedSize=1;strokeColor=#9673a6;strokeWidth=3;fillColor=#e1d5e7;" vertex="1" parent="1">
                    <mxGeometry x="90" y="500" width="310" height="80" as="geometry"/>
                </mxCell>
                <mxCell id="110" value="" style="edgeStyle=orthogonalEdgeStyle;rounded=0;orthogonalLoop=1;jettySize=auto;html=1;dashed=1;startArrow=none;startFill=0;endArrow=none;endFill=1;strokeWidth=3;" edge="1" parent="1" source="36" target="97">
                    <mxGeometry relative="1" as="geometry">
                        <mxPoint x="415" y="680" as="sourcePoint"/>
                        <mxPoint x="110" y="275" as="targetPoint"/>
                        <Array as="points">
                            <mxPoint x="245" y="710"/>
                        </Array>
                    </mxGeometry>
                </mxCell>
                <mxCell id="49" value="" style="rounded=0;whiteSpace=wrap;html=1;fontStyle=1;strokeWidth=4;fillColor=#fff2cc;strokeColor=#d6b656;" vertex="1" parent="1">
                    <mxGeometry x="510" y="400" width="310" height="320" as="geometry"/>
                </mxCell>
                <mxCell id="50" value="&lt;font style=&quot;font-size: 24px&quot; face=&quot;Roboto&quot;&gt;HTTPS certificates&lt;br&gt;&lt;/font&gt;" style="text;html=1;strokeColor=none;fillColor=none;align=center;verticalAlign=middle;whiteSpace=wrap;rounded=0;strokeWidth=3;fontFamily=Roboto Mono, mono;FType=g;" vertex="1" parent="1">
                    <mxGeometry x="550.9" y="410" width="228.21" height="40" as="geometry"/>
                </mxCell>
                <mxCell id="51" value="&lt;font face=&quot;Roboto&quot; data-font-src=&quot;https://fonts.googleapis.com/css?family=Roboto&quot;&gt;&lt;span style=&quot;font-size: 24px&quot;&gt;someapp.example.com&lt;/span&gt;&lt;br&gt;&lt;/font&gt;" style="rounded=0;whiteSpace=wrap;html=1;strokeColor=#000000;strokeWidth=3;" vertex="1" parent="1">
                    <mxGeometry x="530" y="465" width="270" height="70" as="geometry"/>
                </mxCell>
                <mxCell id="52" value="&lt;font face=&quot;Roboto&quot; data-font-src=&quot;https://fonts.googleapis.com/css?family=Roboto&quot;&gt;&lt;span style=&quot;font-size: 24px&quot;&gt;another.example.net&lt;/span&gt;&lt;br&gt;&lt;/font&gt;" style="rounded=0;whiteSpace=wrap;html=1;strokeColor=#666666;strokeWidth=3;fillColor=#f5f5f5;fontColor=#333333;" vertex="1" parent="1">
                    <mxGeometry x="530" y="545" width="270" height="70" as="geometry"/>
                </mxCell>
                <mxCell id="53" value="&lt;font face=&quot;Roboto&quot; data-font-src=&quot;https://fonts.googleapis.com/css?family=Roboto&quot;&gt;&lt;span style=&quot;font-size: 24px&quot;&gt;onemore.example.org&lt;/span&gt;&lt;br&gt;&lt;/font&gt;" style="rounded=0;whiteSpace=wrap;html=1;strokeColor=#666666;strokeWidth=3;fillColor=#f5f5f5;fontColor=#333333;" vertex="1" parent="1">
                    <mxGeometry x="530" y="625" width="270" height="70" as="geometry"/>
                </mxCell>
                <mxCell id="42" value="&lt;font face=&quot;Roboto&quot; data-font-src=&quot;https://fonts.googleapis.com/css?family=Roboto&quot;&gt;&lt;span style=&quot;font-size: 24px&quot;&gt;IP:&lt;/span&gt;&lt;br&gt;&lt;span style=&quot;font-size: 24px&quot;&gt;123.124.125.126&lt;/span&gt;&lt;br&gt;&lt;/font&gt;" style="rounded=0;whiteSpace=wrap;html=1;strokeColor=#000000;strokeWidth=3;" vertex="1" parent="1">
                    <mxGeometry x="290" y="600" width="220" height="70" as="geometry"/>
                </mxCell>
                <mxCell id="84" value="&lt;span style=&quot;font-family: &amp;#34;roboto&amp;#34; ; font-size: 24px&quot;&gt;Decrypted request for: someapp.example.com&lt;/span&gt;" style="shape=hexagon;perimeter=hexagonPerimeter2;whiteSpace=wrap;html=1;fixedSize=1;strokeColor=#82b366;strokeWidth=3;fillColor=#d5e8d4;" vertex="1" parent="1">
                    <mxGeometry x="885" y="350" width="310" height="80" as="geometry"/>
                </mxCell>
                <mxCell id="111" value="" style="edgeStyle=orthogonalEdgeStyle;rounded=0;orthogonalLoop=1;jettySize=auto;html=1;startArrow=none;startFill=0;endArrow=none;endFill=1;strokeWidth=3;" edge="1" parent="1" source="6" target="84">
                    <mxGeometry relative="1" as="geometry">
                        <mxPoint x="850" y="390" as="sourcePoint"/>
                        <mxPoint x="1190" y="700" as="targetPoint"/>
                        <Array as="points"/>
                    </mxGeometry>
                </mxCell>
            </root>
        </mxGraphModel>
    </diagram>
</mxfile>
